{
    "asset" : {
        "generator" : "Khronos glTF Blender I/O v1.3.48",
        "version" : "2.0"
    },
    "scene" : 0,
    "scenes" : [
        {
            "name" : "Scene",
            "nodes" : [
                0,
                1,
                2,
                3
            ]
        }
    ],
    "nodes" : [
        {
            "mesh" : 0,
            "name" : "feetObj"
        },
        {
            "mesh" : 1,
            "name" : "topObj"
        },
        {
            "mesh" : 2,
            "name" : "middleObj"
        },
        {
            "mesh" : 3,
            "name" : "bottomObj"
        }
    ],
    "materials" : [
        {
            "doubleSided" : true,
            "emissiveFactor" : [
                0,
                0,
                0
            ],
            "name" : "4c4b3605.001",
            "normalTexture" : {
                "index" : 0,
                "scale" : 1.5,
                "texCoord" : 0
            },
            "pbrMetallicRoughness" : {
                "baseColorTexture" : {
                    "index" : 1,
                    "texCoord" : 0
                },
                "metallicRoughnessTexture" : {
                    "index" : 2,
                    "texCoord" : 0
                }
            }
        },
        {
            "doubleSided" : true,
            "emissiveFactor" : [
                0,
                0,
                0
            ],
            "name" : "4c4b3605.004",
            "normalTexture" : {
                "index" : 3,
                "scale" : 1.5,
                "texCoord" : 0
            },
            "pbrMetallicRoughness" : {
                "baseColorTexture" : {
                    "index" : 4,
                    "texCoord" : 0
                },
                "metallicRoughnessTexture" : {
                    "index" : 5,
                    "texCoord" : 0
                }
            }
        },
        {
            "doubleSided" : true,
            "emissiveFactor" : [
                0,
                0,
                0
            ],
            "name" : "4c4b3605.003",
            "normalTexture" : {
                "index" : 6,
                "scale" : 1.5,
                "texCoord" : 0
            },
            "pbrMetallicRoughness" : {
                "baseColorTexture" : {
                    "index" : 7,
                    "texCoord" : 0
                },
                "metallicRoughnessTexture" : {
                    "index" : 8,
                    "texCoord" : 0
                }
            }
        },
        {
            "doubleSided" : true,
            "emissiveFactor" : [
                0,
                0,
                0
            ],
            "name" : "4c4b3605.002",
            "normalTexture" : {
                "index" : 9,
                "scale" : 1.5,
                "texCoord" : 0
            },
            "pbrMetallicRoughness" : {
                "baseColorTexture" : {
                    "index" : 10,
                    "texCoord" : 0
                },
                "metallicRoughnessTexture" : {
                    "index" : 11,
                    "texCoord" : 0
                }
            }
        }
    ],
    "meshes" : [
        {
            "name" : "feetMesh",
            "primitives" : [
                {
                    "attributes" : {
                        "POSITION" : 0,
                        "NORMAL" : 1,
                        "TEXCOORD_0" : 2
                    },
                    "indices" : 3,
                    "material" : 0
                }
            ]
        },
        {
            "name" : "topMesh",
            "primitives" : [
                {
                    "attributes" : {
                        "POSITION" : 4,
                        "NORMAL" : 5,
                        "TEXCOORD_0" : 6
                    },
                    "indices" : 7,
                    "material" : 1
                }
            ]
        },
        {
            "name" : "middleMesh",
            "primitives" : [
                {
                    "attributes" : {
                        "POSITION" : 8,
                        "NORMAL" : 9,
                        "TEXCOORD_0" : 10
                    },
                    "indices" : 11,
                    "material" : 2
                }
            ]
        },
        {
            "name" : "bottomMesh",
            "primitives" : [
                {
                    "attributes" : {
                        "POSITION" : 12,
                        "NORMAL" : 13,
                        "TEXCOORD_0" : 14
                    },
                    "indices" : 15,
                    "material" : 3
                }
            ]
        }
    ],
    "textures" : [
        {
            "source" : 0
        },
        {
            "source" : 1
        },
        {
            "source" : 2
        },
        {
            "source" : 0
        },
        {
            "source" : 1
        },
        {
            "source" : 2
        },
        {
            "source" : 0
        },
        {
            "source" : 1
        },
        {
            "source" : 2
        },
        {
            "source" : 0
        },
        {
            "source" : 1
        },
        {
            "source" : 2
        }
    ],
    "images" : [
        {
            "mimeType" : "image/png",
            "name" : "4c4b3605_Normal",
            "uri" : "textures/4c4b3605_Normal.png"
        },
        {
            "mimeType" : "image/png",
            "name" : "4c4b3605_BaseColor-4c4b3605_Opacity",
            "uri" : "textures/4c4b3605_BaseColor-4c4b3605_Opacity.png"
        },
        {
            "mimeType" : "image/png",
            "name" : "4c4b3605_Metalness-4c4b3605_Roughness",
            "uri" : "textures/4c4b3605_Metalness-4c4b3605_Roughness.png"
        }
    ],
    "accessors" : [
        {
            "bufferView" : 0,
            "componentType" : 5126,
            "count" : 252,
            "max" : [
                0.39410221576690674,
                0.07773590087890625,
                0.27587246894836426
            ],
            "min" : [
                -0.394670307636261,
                -0.00010187401494476944,
                -0.26156705617904663
            ],
            "type" : "VEC3"
        },
        {
            "bufferView" : 1,
            "componentType" : 5126,
            "count" : 252,
            "type" : "VEC3"
        },
        {
            "bufferView" : 2,
            "componentType" : 5126,
            "count" : 252,
            "type" : "VEC2"
        },
        {
            "bufferView" : 3,
            "componentType" : 5123,
            "count" : 720,
            "type" : "SCALAR"
        },
        {
            "bufferView" : 4,
            "componentType" : 5126,
            "count" : 3917,
            "max" : [
                0.4194577634334564,
                0.5328980684280396,
                0.2934207022190094
            ],
            "min" : [
                -0.41884344816207886,
                0.3857596516609192,
                -0.290579229593277
            ],
            "type" : "VEC3"
        },
        {
            "bufferView" : 5,
            "componentType" : 5126,
            "count" : 3917,
            "type" : "VEC3"
        },
        {
            "bufferView" : 6,
            "componentType" : 5126,
            "count" : 3917,
            "type" : "VEC2"
        },
        {
            "bufferView" : 7,
            "componentType" : 5123,
            "count" : 21696,
            "type" : "SCALAR"
        },
        {
            "bufferView" : 8,
            "componentType" : 5126,
            "count" : 1536,
            "max" : [
                0.41303250193595886,
                0.39130452275276184,
                0.2856718897819519
            ],
            "min" : [
                -0.41307806968688965,
                0.24831224977970123,
                -0.28040656447410583
            ],
            "type" : "VEC3"
        },
        {
            "bufferView" : 9,
            "componentType" : 5126,
            "count" : 1536,
            "type" : "VEC3"
        },
        {
            "bufferView" : 10,
            "componentType" : 5126,
            "count" : 1536,
            "type" : "VEC2"
        },
        {
            "bufferView" : 11,
            "componentType" : 5123,
            "count" : 8208,
            "type" : "SCALAR"
        },
        {
            "bufferView" : 12,
            "componentType" : 5126,
            "count" : 1818,
            "max" : [
                0.4038681387901306,
                0.2595137357711792,
                0.2857906222343445
            ],
            "min" : [
                -0.40671980381011963,
                0.07495947182178497,
                -0.27148523926734924
            ],
            "type" : "VEC3"
        },
        {
            "bufferView" : 13,
            "componentType" : 5126,
            "count" : 1818,
            "type" : "VEC3"
        },
        {
            "bufferView" : 14,
            "componentType" : 5126,
            "count" : 1818,
            "type" : "VEC2"
        },
        {
            "bufferView" : 15,
            "componentType" : 5123,
            "count" : 10302,
            "type" : "SCALAR"
        }
    ],
    "bufferViews" : [
        {
            "buffer" : 0,
            "byteLength" : 3024,
            "byteOffset" : 0
        },
        {
            "buffer" : 0,
            "byteLength" : 3024,
            "byteOffset" : 3024
        },
        {
            "buffer" : 0,
            "byteLength" : 2016,
            "byteOffset" : 6048
        },
        {
            "buffer" : 0,
            "byteLength" : 1440,
            "byteOffset" : 8064
        },
        {
            "buffer" : 0,
            "byteLength" : 47004,
            "byteOffset" : 9504
        },
        {
            "buffer" : 0,
            "byteLength" : 47004,
            "byteOffset" : 56508
        },
        {
            "buffer" : 0,
            "byteLength" : 31336,
            "byteOffset" : 103512
        },
        {
            "buffer" : 0,
            "byteLength" : 43392,
            "byteOffset" : 134848
        },
        {
            "buffer" : 0,
            "byteLength" : 18432,
            "byteOffset" : 178240
        },
        {
            "buffer" : 0,
            "byteLength" : 18432,
            "byteOffset" : 196672
        },
        {
            "buffer" : 0,
            "byteLength" : 12288,
            "byteOffset" : 215104
        },
        {
            "buffer" : 0,
            "byteLength" : 16416,
            "byteOffset" : 227392
        },
        {
            "buffer" : 0,
            "byteLength" : 21816,
            "byteOffset" : 243808
        },
        {
            "buffer" : 0,
            "byteLength" : 21816,
            "byteOffset" : 265624
        },
        {
            "buffer" : 0,
            "byteLength" : 14544,
            "byteOffset" : 287440
        },
        {
            "buffer" : 0,
            "byteLength" : 20604,
            "byteOffset" : 301984
        }
    ],
    "buffers" : [
        {
            "byteLength" : 322588,
            "uri" : "split_meshes.bin"
        }
    ]
}
