{
    "asset" : {
        "generator" : "Khronos glTF Blender I/O v1.6.16",
        "version" : "2.0"
    },
    "scene" : 0,
    "scenes" : [
        {
            "name" : "Scene",
            "nodes" : [
                0,
                1,
                2,
                3
            ]
        }
    ],
    "nodes" : [
        {
            "mesh" : 0,
            "name" : "slate LP.001"
        },
        {
            "mesh" : 1,
            "name" : "pivot LP.001"
        },
        {
            "mesh" : 2,
            "name" : "bearing LP.001"
        },
        {
            "mesh" : 3,
            "name" : "slate LPin.001"
        }
    ],
    "materials" : [
        {
            "doubleSided" : true,
            "name" : "slateMaterial",
            "pbrMetallicRoughness" : {
                "baseColorFactor" : [
                    0.09346278756856918,
                    0.09346278756856918,
                    0.09346278756856918,
                    1
                ],
                "metallicFactor" : 0,
                "roughnessFactor" : 0.5
            }
        },
        {
            "doubleSided" : true,
            "name" : "pivotMaterial",
            "pbrMetallicRoughness" : {
                "baseColorFactor" : [
                    0.09346278756856918,
                    0.09346278756856918,
                    0.09346278756856918,
                    1
                ],
                "metallicFactor" : 0,
                "roughnessFactor" : 0.5
            }
        },
        {
            "doubleSided" : true,
            "name" : "ringMaterial",
            "pbrMetallicRoughness" : {
                "baseColorFactor" : [
                    0.09346278756856918,
                    0.09346278756856918,
                    0.09346278756856918,
                    1
                ],
                "metallicFactor" : 0,
                "roughnessFactor" : 0.5
            }
        },
        {
            "doubleSided" : true,
            "name" : "slateMaterialIn",
            "pbrMetallicRoughness" : {
                "baseColorFactor" : [
                    0.09346278756856918,
                    0.09346278756856918,
                    0.09346278756856918,
                    1
                ],
                "metallicFactor" : 0,
                "roughnessFactor" : 0.5
            }
        }
    ],
    "meshes" : [
        {
            "name" : "slate LP.001",
            "primitives" : [
                {
                    "attributes" : {
                        "POSITION" : 0,
                        "NORMAL" : 1,
                        "TEXCOORD_0" : 2
                    },
                    "indices" : 3,
                    "material" : 0
                }
            ]
        },
        {
            "name" : "pivot LP.001",
            "primitives" : [
                {
                    "attributes" : {
                        "POSITION" : 4,
                        "NORMAL" : 5,
                        "TEXCOORD_0" : 6
                    },
                    "indices" : 7,
                    "material" : 1
                }
            ]
        },
        {
            "name" : "bearing LP.001",
            "primitives" : [
                {
                    "attributes" : {
                        "POSITION" : 8,
                        "NORMAL" : 9,
                        "TEXCOORD_0" : 10
                    },
                    "indices" : 11,
                    "material" : 2
                }
            ]
        },
        {
            "name" : "slate LPin.001",
            "primitives" : [
                {
                    "attributes" : {
                        "POSITION" : 12,
                        "NORMAL" : 13,
                        "TEXCOORD_0" : 14
                    },
                    "indices" : 3,
                    "material" : 3
                }
            ]
        }
    ],
    "accessors" : [
        {
            "bufferView" : 0,
            "componentType" : 5126,
            "count" : 456,
            "max" : [
                1.071798324584961,
                0.40254735946655273,
                0.04210440814495087
            ],
            "min" : [
                -1.0718023777008057,
                -0.40254735946655273,
                -0.04210439324378967
            ],
            "type" : "VEC3"
        },
        {
            "bufferView" : 1,
            "componentType" : 5126,
            "count" : 456,
            "type" : "VEC3"
        },
        {
            "bufferView" : 2,
            "componentType" : 5126,
            "count" : 456,
            "type" : "VEC2"
        },
        {
            "bufferView" : 3,
            "componentType" : 5123,
            "count" : 1992,
            "type" : "SCALAR"
        },
        {
            "bufferView" : 4,
            "componentType" : 5126,
            "count" : 374,
            "max" : [
                0.24436704814434052,
                0.24436700344085693,
                0.1616341769695282
            ],
            "min" : [
                -0.24436692893505096,
                -0.24436695873737335,
                -0.16163572669029236
            ],
            "type" : "VEC3"
        },
        {
            "bufferView" : 5,
            "componentType" : 5126,
            "count" : 374,
            "type" : "VEC3"
        },
        {
            "bufferView" : 6,
            "componentType" : 5126,
            "count" : 374,
            "type" : "VEC2"
        },
        {
            "bufferView" : 7,
            "componentType" : 5123,
            "count" : 1728,
            "type" : "SCALAR"
        },
        {
            "bufferView" : 8,
            "componentType" : 5126,
            "count" : 204,
            "max" : [
                0.39164894819259644,
                0.39164966344833374,
                0.05052308738231659
            ],
            "min" : [
                -0.39165034890174866,
                -0.39164969325065613,
                -0.05015110969543457
            ],
            "type" : "VEC3"
        },
        {
            "bufferView" : 9,
            "componentType" : 5126,
            "count" : 204,
            "type" : "VEC3"
        },
        {
            "bufferView" : 10,
            "componentType" : 5126,
            "count" : 204,
            "type" : "VEC2"
        },
        {
            "bufferView" : 11,
            "componentType" : 5123,
            "count" : 768,
            "type" : "SCALAR"
        },
        {
            "bufferView" : 12,
            "componentType" : 5126,
            "count" : 456,
            "max" : [
                1.071798324584961,
                0.40254735946655273,
                0.04210440814495087
            ],
            "min" : [
                -1.0718023777008057,
                -0.40254735946655273,
                -0.04210439324378967
            ],
            "type" : "VEC3"
        },
        {
            "bufferView" : 13,
            "componentType" : 5126,
            "count" : 456,
            "type" : "VEC3"
        },
        {
            "bufferView" : 14,
            "componentType" : 5126,
            "count" : 456,
            "type" : "VEC2"
        }
    ],
    "bufferViews" : [
        {
            "buffer" : 0,
            "byteLength" : 5472,
            "byteOffset" : 0
        },
        {
            "buffer" : 0,
            "byteLength" : 5472,
            "byteOffset" : 5472
        },
        {
            "buffer" : 0,
            "byteLength" : 3648,
            "byteOffset" : 10944
        },
        {
            "buffer" : 0,
            "byteLength" : 3984,
            "byteOffset" : 14592
        },
        {
            "buffer" : 0,
            "byteLength" : 4488,
            "byteOffset" : 18576
        },
        {
            "buffer" : 0,
            "byteLength" : 4488,
            "byteOffset" : 23064
        },
        {
            "buffer" : 0,
            "byteLength" : 2992,
            "byteOffset" : 27552
        },
        {
            "buffer" : 0,
            "byteLength" : 3456,
            "byteOffset" : 30544
        },
        {
            "buffer" : 0,
            "byteLength" : 2448,
            "byteOffset" : 34000
        },
        {
            "buffer" : 0,
            "byteLength" : 2448,
            "byteOffset" : 36448
        },
        {
            "buffer" : 0,
            "byteLength" : 1632,
            "byteOffset" : 38896
        },
        {
            "buffer" : 0,
            "byteLength" : 1536,
            "byteOffset" : 40528
        },
        {
            "buffer" : 0,
            "byteLength" : 5472,
            "byteOffset" : 42064
        },
        {
            "buffer" : 0,
            "byteLength" : 5472,
            "byteOffset" : 47536
        },
        {
            "buffer" : 0,
            "byteLength" : 3648,
            "byteOffset" : 53008
        }
    ],
    "buffers" : [
        {
            "byteLength" : 56656,
            "uri" : "split_meshes.bin"
        }
    ]
}
