{
    "asset" : {
        "generator" : "Khronos glTF Blender I/O v1.6.16",
        "version" : "2.0"
    },
    "scene" : 0,
    "scenes" : [
        {
            "name" : "Scene",
            "nodes" : [
                0,
                1,
                2,
                3
            ]
        }
    ],
    "nodes" : [
        {
            "mesh" : 0,
            "name" : "slate LP.001"
        },
        {
            "mesh" : 1,
            "name" : "pivot LP.001"
        },
        {
            "mesh" : 2,
            "name" : "bearing LP.001"
        },
        {
            "mesh" : 3,
            "name" : "slate LPin.001"
        }
    ],
    "materials" : [
        {
            "doubleSided" : true,
            "name" : "slateMaterial",
            "normalTexture" : {
                "index" : 0,
                "scale" : 0.4000000059604645
            },
            "pbrMetallicRoughness" : {
                "baseColorFactor" : [
                    0.09346278756856918,
                    0.09346278756856918,
                    0.09346278756856918,
                    1
                ],
                "metallicFactor" : 0,
                "roughnessFactor" : 0.5
            }
        },
        {
            "doubleSided" : true,
            "name" : "pivotMaterial",
            "normalTexture" : {
                "index" : 1,
                "scale" : 0.5
            },
            "pbrMetallicRoughness" : {
                "baseColorFactor" : [
                    0.09346278756856918,
                    0.09346278756856918,
                    0.09346278756856918,
                    1
                ],
                "metallicFactor" : 0,
                "roughnessFactor" : 0.5
            }
        },
        {
            "doubleSided" : true,
            "name" : "ringMaterial",
            "normalTexture" : {
                "index" : 2,
                "scale" : 0.6000000238418579
            },
            "pbrMetallicRoughness" : {
                "baseColorFactor" : [
                    0.09346278756856918,
                    0.09346278756856918,
                    0.09346278756856918,
                    1
                ],
                "metallicFactor" : 0,
                "roughnessFactor" : 0.5
            }
        },
        {
            "doubleSided" : true,
            "name" : "slateMaterialIn",
            "normalTexture" : {
                "index" : 3,
                "scale" : 0.4000000059604645
            },
            "pbrMetallicRoughness" : {
                "baseColorFactor" : [
                    0.09346278756856918,
                    0.09346278756856918,
                    0.09346278756856918,
                    1
                ],
                "metallicFactor" : 0,
                "roughnessFactor" : 0.5
            }
        }
    ],
    "meshes" : [
        {
            "name" : "Circle.016",
            "primitives" : [
                {
                    "attributes" : {
                        "POSITION" : 0,
                        "NORMAL" : 1,
                        "TEXCOORD_0" : 2
                    },
                    "indices" : 3,
                    "material" : 0
                }
            ]
        },
        {
            "name" : "Circle.017",
            "primitives" : [
                {
                    "attributes" : {
                        "POSITION" : 4,
                        "NORMAL" : 5,
                        "TEXCOORD_0" : 6
                    },
                    "indices" : 7,
                    "material" : 1
                }
            ]
        },
        {
            "name" : "Circle.018",
            "primitives" : [
                {
                    "attributes" : {
                        "POSITION" : 8,
                        "NORMAL" : 9,
                        "TEXCOORD_0" : 10
                    },
                    "indices" : 11,
                    "material" : 2
                }
            ]
        },
        {
            "name" : "Circle.021",
            "primitives" : [
                {
                    "attributes" : {
                        "POSITION" : 12,
                        "NORMAL" : 13,
                        "TEXCOORD_0" : 14
                    },
                    "indices" : 3,
                    "material" : 3
                }
            ]
        }
    ],
    "textures" : [
        {
            "sampler" : 0,
            "source" : 0
        },
        {
            "sampler" : 0,
            "source" : 1
        },
        {
            "sampler" : 0,
            "source" : 2
        },
        {
            "sampler" : 0,
            "source" : 0
        }
    ],
    "images" : [
        {
            "mimeType" : "image/png",
            "name" : "nChainNorm2",
            "uri" : "Textures/nChainNorm2.png"
        },
        {
            "mimeType" : "image/png",
            "name" : "nPivotNorm2",
            "uri" : "Textures/nPivotNorm2.png"
        },
        {
            "mimeType" : "image/png",
            "name" : "nbearingNorm2",
            "uri" : "Textures/nbearingNorm2.png"
        }
    ],
    "accessors" : [
        {
            "bufferView" : 0,
            "componentType" : 5126,
            "count" : 608,
            "max" : [
                0.017507407814264297,
                0.3932395875453949,
                1.0702364444732666
            ],
            "min" : [
                -0.017587866634130478,
                -0.3932395875453949,
                -1.0702364444732666
            ],
            "type" : "VEC3"
        },
        {
            "bufferView" : 1,
            "componentType" : 5126,
            "count" : 608,
            "type" : "VEC3"
        },
        {
            "bufferView" : 2,
            "componentType" : 5126,
            "count" : 608,
            "type" : "VEC2"
        },
        {
            "bufferView" : 3,
            "componentType" : 5123,
            "count" : 1536,
            "type" : "SCALAR"
        },
        {
            "bufferView" : 4,
            "componentType" : 5126,
            "count" : 104,
            "max" : [
                0.315559446811676,
                0.24594222009181976,
                0.24594224989414215
            ],
            "min" : [
                -0.315559446811676,
                -0.24594222009181976,
                -0.24594224989414215
            ],
            "type" : "VEC3"
        },
        {
            "bufferView" : 5,
            "componentType" : 5126,
            "count" : 104,
            "type" : "VEC3"
        },
        {
            "bufferView" : 6,
            "componentType" : 5126,
            "count" : 104,
            "type" : "VEC2"
        },
        {
            "bufferView" : 7,
            "componentType" : 5123,
            "count" : 288,
            "type" : "SCALAR"
        },
        {
            "bufferView" : 8,
            "componentType" : 5126,
            "count" : 128,
            "max" : [
                0.1019286960363388,
                0.39417436718940735,
                0.3941735029220581
            ],
            "min" : [
                -0.10273981094360352,
                -0.39417436718940735,
                -0.3941735029220581
            ],
            "type" : "VEC3"
        },
        {
            "bufferView" : 9,
            "componentType" : 5126,
            "count" : 128,
            "type" : "VEC3"
        },
        {
            "bufferView" : 10,
            "componentType" : 5126,
            "count" : 128,
            "type" : "VEC2"
        },
        {
            "bufferView" : 11,
            "componentType" : 5123,
            "count" : 288,
            "type" : "SCALAR"
        },
        {
            "bufferView" : 12,
            "componentType" : 5126,
            "count" : 608,
            "max" : [
                0.017507407814264297,
                0.3932395875453949,
                1.0702364444732666
            ],
            "min" : [
                -0.017587866634130478,
                -0.3932395875453949,
                -1.0702364444732666
            ],
            "type" : "VEC3"
        },
        {
            "bufferView" : 13,
            "componentType" : 5126,
            "count" : 608,
            "type" : "VEC3"
        },
        {
            "bufferView" : 14,
            "componentType" : 5126,
            "count" : 608,
            "type" : "VEC2"
        }
    ],
    "bufferViews" : [
        {
            "buffer" : 0,
            "byteLength" : 7296,
            "byteOffset" : 0
        },
        {
            "buffer" : 0,
            "byteLength" : 7296,
            "byteOffset" : 7296
        },
        {
            "buffer" : 0,
            "byteLength" : 4864,
            "byteOffset" : 14592
        },
        {
            "buffer" : 0,
            "byteLength" : 3072,
            "byteOffset" : 19456
        },
        {
            "buffer" : 0,
            "byteLength" : 1248,
            "byteOffset" : 22528
        },
        {
            "buffer" : 0,
            "byteLength" : 1248,
            "byteOffset" : 23776
        },
        {
            "buffer" : 0,
            "byteLength" : 832,
            "byteOffset" : 25024
        },
        {
            "buffer" : 0,
            "byteLength" : 576,
            "byteOffset" : 25856
        },
        {
            "buffer" : 0,
            "byteLength" : 1536,
            "byteOffset" : 26432
        },
        {
            "buffer" : 0,
            "byteLength" : 1536,
            "byteOffset" : 27968
        },
        {
            "buffer" : 0,
            "byteLength" : 1024,
            "byteOffset" : 29504
        },
        {
            "buffer" : 0,
            "byteLength" : 576,
            "byteOffset" : 30528
        },
        {
            "buffer" : 0,
            "byteLength" : 7296,
            "byteOffset" : 31104
        },
        {
            "buffer" : 0,
            "byteLength" : 7296,
            "byteOffset" : 38400
        },
        {
            "buffer" : 0,
            "byteLength" : 4864,
            "byteOffset" : 45696
        }
    ],
    "samplers" : [
        {
            "magFilter" : 9729,
            "minFilter" : 9987
        }
    ],
    "buffers" : [
        {
            "byteLength" : 50560,
            "uri" : "split_meshes.bin"
        }
    ]
}
