{
    "asset" : {
        "generator" : "Khronos glTF Blender I/O v1.6.16",
        "version" : "2.0"
    },
    "scene" : 0,
    "scenes" : [
        {
            "name" : "Scene",
            "nodes" : [
                0,
                1,
                2
            ]
        }
    ],
    "nodes" : [
        {
            "mesh" : 0,
            "name" : "Plane.001",
            "scale" : [
                9.143013000488281,
                8.384917259216309,
                9.143013000488281
            ],
            "translation" : [
                10.950834274291992,
                -0.20125584304332733,
                0.24189653992652893
            ]
        },
        {
            "mesh" : 1,
            "name" : "Plane.049",
            "scale" : [
                9.143013000488281,
                8.384917259216309,
                9.143013000488281
            ],
            "translation" : [
                10.950834274291992,
                -0.20125584304332733,
                0.24189653992652893
            ]
        },
        {
            "mesh" : 2,
            "name" : "Plane.050",
            "scale" : [
                9.143013000488281,
                8.384917259216309,
                9.143013000488281
            ],
            "translation" : [
                10.950834274291992,
                -0.20125584304332733,
                0.24189653992652893
            ]
        }
    ],
    "materials" : [
        {
            "doubleSided" : true,
            "name" : "cave walls",
            "pbrMetallicRoughness" : {
                "baseColorFactor" : [
                    0.19187414646148682,
                    0.09248514473438263,
                    0.04167717695236206,
                    1
                ],
                "metallicFactor" : 0,
                "roughnessFactor" : 0.5
            }
        },
        {
            "doubleSided" : true,
            "name" : "cave roof",
            "pbrMetallicRoughness" : {
                "baseColorFactor" : [
                    0.659835159778595,
                    0.40738338232040405,
                    0.29405054450035095,
                    1
                ],
                "metallicFactor" : 0,
                "roughnessFactor" : 0.5
            }
        },
        {
            "doubleSided" : true,
            "name" : "cave floor",
            "pbrMetallicRoughness" : {
                "baseColorFactor" : [
                    0.034018438309431076,
                    0.013508912175893784,
                    0.006648422684520483,
                    1
                ],
                "metallicFactor" : 0,
                "roughnessFactor" : 0.5
            }
        }
    ],
    "meshes" : [
        {
            "name" : "Plane.007",
            "primitives" : [
                {
                    "attributes" : {
                        "POSITION" : 0,
                        "NORMAL" : 1,
                        "TEXCOORD_0" : 2
                    },
                    "indices" : 3,
                    "material" : 0
                }
            ]
        },
        {
            "name" : "Plane.049",
            "primitives" : [
                {
                    "attributes" : {
                        "POSITION" : 4,
                        "NORMAL" : 5,
                        "TEXCOORD_0" : 6
                    },
                    "indices" : 7,
                    "material" : 1
                }
            ]
        },
        {
            "name" : "Plane.050",
            "primitives" : [
                {
                    "attributes" : {
                        "POSITION" : 8,
                        "NORMAL" : 9,
                        "TEXCOORD_0" : 10
                    },
                    "indices" : 11,
                    "material" : 2
                }
            ]
        }
    ],
    "accessors" : [
        {
            "bufferView" : 0,
            "componentType" : 5126,
            "count" : 1043,
            "max" : [
                -0.35267961025238037,
                0.38963428139686584,
                0.9883941411972046
            ],
            "min" : [
                -3.609368324279785,
                0.026663117110729218,
                -0.959049642086029
            ],
            "type" : "VEC3"
        },
        {
            "bufferView" : 1,
            "componentType" : 5126,
            "count" : 1043,
            "type" : "VEC3"
        },
        {
            "bufferView" : 2,
            "componentType" : 5126,
            "count" : 1043,
            "type" : "VEC2"
        },
        {
            "bufferView" : 3,
            "componentType" : 5123,
            "count" : 5364,
            "type" : "SCALAR"
        },
        {
            "bufferView" : 4,
            "componentType" : 5126,
            "count" : 149,
            "max" : [
                -0.4536705017089844,
                0.38963428139686584,
                0.9361901879310608
            ],
            "min" : [
                -3.5420446395874023,
                0.38963428139686584,
                -0.9106044173240662
            ],
            "type" : "VEC3"
        },
        {
            "bufferView" : 5,
            "componentType" : 5126,
            "count" : 149,
            "type" : "VEC3"
        },
        {
            "bufferView" : 6,
            "componentType" : 5126,
            "count" : 149,
            "type" : "VEC2"
        },
        {
            "bufferView" : 7,
            "componentType" : 5123,
            "count" : 441,
            "type" : "SCALAR"
        },
        {
            "bufferView" : 8,
            "componentType" : 5126,
            "count" : 149,
            "max" : [
                -0.4536705017089844,
                0.026663117110729218,
                0.9361901879310608
            ],
            "min" : [
                -3.5420446395874023,
                0.026663117110729218,
                -0.9106044173240662
            ],
            "type" : "VEC3"
        },
        {
            "bufferView" : 9,
            "componentType" : 5126,
            "count" : 149,
            "type" : "VEC3"
        },
        {
            "bufferView" : 10,
            "componentType" : 5126,
            "count" : 149,
            "type" : "VEC2"
        },
        {
            "bufferView" : 11,
            "componentType" : 5123,
            "count" : 441,
            "type" : "SCALAR"
        }
    ],
    "bufferViews" : [
        {
            "buffer" : 0,
            "byteLength" : 12516,
            "byteOffset" : 0
        },
        {
            "buffer" : 0,
            "byteLength" : 12516,
            "byteOffset" : 12516
        },
        {
            "buffer" : 0,
            "byteLength" : 8344,
            "byteOffset" : 25032
        },
        {
            "buffer" : 0,
            "byteLength" : 10728,
            "byteOffset" : 33376
        },
        {
            "buffer" : 0,
            "byteLength" : 1788,
            "byteOffset" : 44104
        },
        {
            "buffer" : 0,
            "byteLength" : 1788,
            "byteOffset" : 45892
        },
        {
            "buffer" : 0,
            "byteLength" : 1192,
            "byteOffset" : 47680
        },
        {
            "buffer" : 0,
            "byteLength" : 882,
            "byteOffset" : 48872
        },
        {
            "buffer" : 0,
            "byteLength" : 1788,
            "byteOffset" : 49756
        },
        {
            "buffer" : 0,
            "byteLength" : 1788,
            "byteOffset" : 51544
        },
        {
            "buffer" : 0,
            "byteLength" : 1192,
            "byteOffset" : 53332
        },
        {
            "buffer" : 0,
            "byteLength" : 882,
            "byteOffset" : 54524
        }
    ],
    "buffers" : [
        {
            "byteLength" : 55408,
            "uri" : "simple_cave.bin"
        }
    ]
}
