{
    "asset" : {
        "generator" : "Khronos glTF Blender I/O v1.3.48",
        "version" : "2.0"
    },
    "scene" : 0,
    "scenes" : [
        {
            "name" : "Scene",
            "nodes" : [
                0
            ]
        }
    ],
    "nodes" : [
        {
            "mesh" : 0,
            "name" : "item_1 new",
            "rotation" : [
                0.7071068286895752,
                0,
                0,
                0.7071067094802856
            ]
        }
    ],
    "materials" : [
        {
            "doubleSided" : true,
            "emissiveFactor" : [
                0,
                0,
                0
            ],
            "name" : "item_1 material",
            "pbrMetallicRoughness" : {
                "baseColorTexture" : {
                    "index" : 0,
                    "texCoord" : 0
                },
                "metallicRoughnessTexture" : {
                    "index" : 1,
                    "texCoord" : 0
                }
            }
        }
    ],
    "meshes" : [
        {
            "name" : "Cube_Cube.002",
            "primitives" : [
                {
                    "attributes" : {
                        "POSITION" : 0,
                        "NORMAL" : 1,
                        "TEXCOORD_0" : 2
                    },
                    "indices" : 3,
                    "material" : 0
                }
            ]
        }
    ],
    "textures" : [
        {
            "source" : 0
        },
        {
            "source" : 1
        }
    ],
    "images" : [
        {
            "mimeType" : "image/png",
            "name" : "item_1_diff",
            "uri" : "textures/item_1_diff.png"
        },
        {
            "mimeType" : "image/png",
            "name" : "item_1_metalness-item_1_rough",
            "uri" : "textures/item_1_metalness-item_1_rough.png"
        }
    ],
    "accessors" : [
        {
            "bufferView" : 0,
            "componentType" : 5126,
            "count" : 23656,
            "max" : [
                0.2849999964237213,
                0.05000000074505806,
                0
            ],
            "min" : [
                0,
                -0.05000000074505806,
                -0.20999999344348907
            ],
            "type" : "VEC3"
        },
        {
            "bufferView" : 1,
            "componentType" : 5126,
            "count" : 23656,
            "type" : "VEC3"
        },
        {
            "bufferView" : 2,
            "componentType" : 5126,
            "count" : 23656,
            "type" : "VEC2"
        },
        {
            "bufferView" : 3,
            "componentType" : 5123,
            "count" : 96144,
            "type" : "SCALAR"
        }
    ],
    "bufferViews" : [
        {
            "buffer" : 0,
            "byteLength" : 283872,
            "byteOffset" : 0
        },
        {
            "buffer" : 0,
            "byteLength" : 283872,
            "byteOffset" : 283872
        },
        {
            "buffer" : 0,
            "byteLength" : 189248,
            "byteOffset" : 567744
        },
        {
            "buffer" : 0,
            "byteLength" : 192288,
            "byteOffset" : 756992
        }
    ],
    "buffers" : [
        {
            "byteLength" : 949280,
            "uri" : "item_1.bin"
        }
    ]
}
