{
    "asset" : {
        "generator" : "Khronos glTF Blender I/O v1.3.48",
        "version" : "2.0"
    },
    "scene" : 0,
    "scenes" : [
        {
            "name" : "Scene",
            "nodes" : [
                0
            ]
        }
    ],
    "nodes" : [
        {
            "mesh" : 0,
            "name" : "item_2_new",
            "rotation" : [
                0.7071068286895752,
                0,
                0,
                0.7071067094802856
            ]
        }
    ],
    "materials" : [
        {
            "doubleSided" : true,
            "emissiveFactor" : [
                0,
                0,
                0
            ],
            "name" : "item_2",
            "normalTexture" : {
                "index" : 0,
                "scale" : 0.3999999165534973,
                "texCoord" : 0
            },
            "pbrMetallicRoughness" : {
                "baseColorTexture" : {
                    "index" : 1,
                    "texCoord" : 0
                },
                "metallicRoughnessTexture" : {
                    "index" : 2,
                    "texCoord" : 0
                }
            }
        }
    ],
    "meshes" : [
        {
            "name" : "Cube_Cube.001",
            "primitives" : [
                {
                    "attributes" : {
                        "POSITION" : 0,
                        "NORMAL" : 1,
                        "TEXCOORD_0" : 2
                    },
                    "indices" : 3,
                    "material" : 0
                }
            ]
        }
    ],
    "textures" : [
        {
            "source" : 0
        },
        {
            "source" : 1
        },
        {
            "source" : 2
        }
    ],
    "images" : [
        {
            "mimeType" : "image/png",
            "name" : "item_2 normals",
            "uri" : "textures/item_2%20normals.png"
        },
        {
            "mimeType" : "image/png",
            "name" : "item_2 diff3",
            "uri" : "textures/item_2%20diff3.png"
        },
        {
            "mimeType" : "image/png",
            "name" : "item_2_metalness-item_2 rough2",
            "uri" : "textures/item_2_metalness-item_2%20rough2.png"
        }
    ],
    "accessors" : [
        {
            "bufferView" : 0,
            "componentType" : 5126,
            "count" : 15601,
            "max" : [
                0.24000099301338196,
                0.15782999992370605,
                0.24161499738693237
            ],
            "min" : [
                -0.24000099301338196,
                -0.04713800176978111,
                -0.24161499738693237
            ],
            "type" : "VEC3"
        },
        {
            "bufferView" : 1,
            "componentType" : 5126,
            "count" : 15601,
            "type" : "VEC3"
        },
        {
            "bufferView" : 2,
            "componentType" : 5126,
            "count" : 15601,
            "type" : "VEC2"
        },
        {
            "bufferView" : 3,
            "componentType" : 5123,
            "count" : 56976,
            "type" : "SCALAR"
        }
    ],
    "bufferViews" : [
        {
            "buffer" : 0,
            "byteLength" : 187212,
            "byteOffset" : 0
        },
        {
            "buffer" : 0,
            "byteLength" : 187212,
            "byteOffset" : 187212
        },
        {
            "buffer" : 0,
            "byteLength" : 124808,
            "byteOffset" : 374424
        },
        {
            "buffer" : 0,
            "byteLength" : 113952,
            "byteOffset" : 499232
        }
    ],
    "buffers" : [
        {
            "byteLength" : 613184,
            "uri" : "item_2_bake.bin"
        }
    ]
}
